<svg xmlns="http://www.w3.org/2000/svg" width="1024" height="1024" viewBox="0 0 1024 1024" version="1.1">
	<path d="M 587.678 309.050 C 571.616 310.724, 541.154 316.488, 542.302 317.636 C 542.501 317.835, 547.352 317.250, 553.082 316.337 C 560.615 315.136, 570.423 314.652, 588.500 314.588 C 610.668 314.510, 614.752 314.754, 624.553 316.742 C 648.878 321.678, 662.102 328.155, 676.117 342 C 684.419 350.202, 686.369 352.798, 690.383 361 C 697.637 375.820, 699.293 385.192, 698.690 408 C 698.014 433.518, 694.306 450.773, 682.610 482.831 L 677.258 497.500 678.988 501 C 679.940 502.925, 681.003 506.354, 681.350 508.620 L 681.982 512.739 677.913 513.285 C 672.619 513.995, 671.080 515.505, 664.262 526.677 C 661.133 531.805, 658.331 535.970, 658.036 535.933 C 657.741 535.896, 654.575 531.343, 651 525.814 C 643.591 514.356, 640.381 512.059, 634.494 514.002 C 629.861 515.531, 628.432 517.459, 629.765 520.384 C 630.348 521.662, 634.700 528.569, 639.436 535.733 L 648.049 548.757 639.075 562.720 C 626.862 581.724, 626.891 581.650, 630.342 584.618 C 636.658 590.051, 641.913 586.997, 650.735 572.766 C 654.405 566.845, 657.654 562.008, 657.954 562.017 C 658.254 562.027, 661.818 567.170, 665.874 573.447 C 674.426 586.685, 676.632 588.257, 683.379 585.925 C 689.716 583.734, 689.392 581.511, 680.763 567.983 C 676.734 561.667, 672.411 554.825, 671.155 552.778 L 668.872 549.056 676.046 537.278 L 683.220 525.500 682.796 531.750 C 682.563 535.188, 682.724 538, 683.155 538 C 684.406 538, 691.279 528.152, 695.718 520 C 711.463 491.080, 721 453.366, 721 420.021 C 721 392.289, 715.444 371.727, 702.907 353.054 C 687.444 330.025, 664.905 315.439, 637 310.401 C 626.650 308.533, 599.718 307.795, 587.678 309.050 M 450 311.680 C 443.363 312.363, 431.477 315.249, 423 318.236 C 382.655 332.453, 355.523 360.787, 344.732 399.969 C 341.856 410.412, 341.605 441.253, 344.292 454 C 346.804 465.919, 351.609 481.232, 355.465 489.606 L 358.737 496.712 366.119 497.251 C 370.178 497.548, 373.581 497.719, 373.681 497.631 C 373.781 497.543, 372.978 494.328, 371.898 490.486 C 364.143 462.910, 363.298 433.318, 369.563 408.708 C 380.474 365.849, 414.135 337.442, 456.500 335.341 C 485.173 333.919, 518.383 346.132, 547.088 368.656 L 552.676 373.040 550.727 378.770 C 547.732 387.580, 548.651 400.818, 552.852 409.350 C 560.421 424.726, 577.809 433.743, 594.792 431.099 C 617.477 427.567, 632.909 406.524, 629.052 384.380 C 625.190 362.198, 606.023 348.360, 582.932 351.083 L 576.864 351.798 565.921 344.403 C 531.127 320.889, 485.553 308.024, 450 311.680 M 459.687 386.646 C 459.309 387.024, 459 395.808, 459 406.167 L 459 425 439.479 425 L 419.959 425 420.229 445.250 L 420.500 465.500 439.725 465.772 L 458.949 466.043 459.225 481.772 L 459.500 497.500 478.927 497.772 C 493.801 497.981, 498.544 497.746, 499.162 496.772 C 499.606 496.072, 499.976 488.863, 499.985 480.750 L 500 466 518.465 466 C 536.133 466, 536.978 465.910, 538.041 463.924 C 539.109 461.928, 539.278 429.156, 538.235 426.250 C 537.897 425.310, 533.106 425, 518.915 425 L 500.043 425 499.772 405.750 L 499.500 386.500 479.937 386.229 C 469.178 386.081, 460.065 386.268, 459.687 386.646 M 459.772 406.250 L 459.500 425.500 440.250 425.772 L 421 426.043 421 445.022 C 421 459.504, 421.296 464.015, 422.250 464.062 C 422.938 464.096, 431.363 464.120, 440.974 464.115 C 453.459 464.109, 458.665 464.448, 459.208 465.303 C 459.627 465.961, 459.976 473.372, 459.985 481.772 L 460 497.043 479.250 496.772 L 498.500 496.500 499 480.536 L 499.500 464.572 517.500 464.316 C 527.400 464.175, 535.837 464.046, 536.250 464.030 C 536.663 464.013, 537 455.460, 537 445.022 L 537 426.044 518.250 425.772 L 499.500 425.500 499.228 406.250 L 498.957 387 479.500 387 L 460.043 387 459.772 406.250 M 574.500 513.402 C 567.435 515.642, 562.566 518.688, 557.655 523.937 C 551.251 530.785, 547.986 538.148, 547.293 547.310 C 546.035 563.939, 554.390 578.151, 569.878 585.729 C 574.865 588.169, 576.630 588.480, 585.519 588.489 C 594.830 588.499, 596.010 588.268, 602.197 585.223 C 623.726 574.627, 631.541 548.524, 618.996 529.115 C 614.232 521.744, 607.546 516.654, 599.145 514.005 C 591.863 511.708, 580.703 511.435, 574.500 513.402 M 409.248 513.663 C 405.156 514.529, 404.828 516.837, 405.173 542.329 L 405.500 566.500 408.311 572.224 C 413.717 583.233, 423.196 588.491, 437.252 588.277 C 448.208 588.111, 454.311 585.831, 460.484 579.597 C 468.256 571.748, 469 568.305, 469 540.162 C 469 518.333, 468.885 516.885, 467 515 C 464.667 512.667, 455.934 512.169, 454.191 514.270 C 453.540 515.054, 453.015 524.512, 452.819 539.020 C 452.529 560.366, 452.318 562.809, 450.500 565.895 C 447.211 571.480, 443.706 573.469, 437.199 573.448 C 430.290 573.424, 426.777 571.379, 423.715 565.597 C 421.727 561.844, 421.501 559.595, 421.022 538.797 C 420.693 524.477, 420.099 515.694, 419.414 515.011 C 418.136 513.736, 412.457 512.983, 409.248 513.663 M 485.280 513.972 C 482.182 515.286, 481.762 517.898, 481.768 535.791 C 481.785 582.610, 481.741 581.832, 484.563 584.654 L 487.126 587.217 505.313 586.797 C 519.718 586.464, 524.332 586.015, 527.500 584.635 C 538.781 579.724, 543.823 567.815, 539.062 557.328 C 538.020 555.033, 535.892 552.357, 534.334 551.381 C 532.775 550.404, 531.315 549.472, 531.089 549.309 C 530.864 549.146, 531.374 548.222, 532.223 547.256 C 535.402 543.641, 538 537.004, 538 532.500 C 538 527.686, 535.488 521.619, 532.356 518.871 C 526.929 514.107, 524.268 513.553, 505.500 513.286 C 495.600 513.145, 486.501 513.454, 485.280 513.972 M 270.395 515.423 C 268.641 516.191, 267.016 517.808, 266.659 519.141 C 265.836 522.214, 265.811 572.341, 266.629 578.310 C 267.793 586.801, 268.326 587, 289.925 587 C 308.614 587, 308.816 586.977, 314.120 584.206 C 321.442 580.381, 325.302 574.206, 325.360 566.225 C 325.410 559.333, 323.354 554.992, 318.466 551.671 C 315.339 549.546, 315.129 549.138, 316.550 547.959 C 322.649 542.897, 323.820 529.386, 318.737 522.722 C 317.262 520.788, 313.905 518.146, 311.277 516.852 C 306.918 514.706, 305.056 514.481, 290 514.283 C 277.887 514.123, 272.675 514.426, 270.395 515.423 M 337.223 515.557 C 335.003 517.111, 335 517.155, 335 549.834 C 335 588.076, 334.753 587, 343.522 587 C 350.443 587, 351 585.999, 351 573.566 L 351 564 356.363 564 L 361.725 564 369.431 574.501 C 373.668 580.277, 377.976 585.452, 379.002 586.001 C 381.442 587.307, 389.600 587.284, 392.066 585.965 C 393.130 585.395, 394 584.339, 394 583.617 C 394 582.895, 390.624 577.906, 386.498 572.530 L 378.996 562.756 384.212 559.628 C 400.822 549.667, 399.257 524.617, 381.507 516.351 C 376.833 514.174, 375.269 514.019, 357.973 514.010 C 342.811 514.002, 339.041 514.283, 337.223 515.557 M 497 535 L 497 543 506.050 543 C 515.457 543, 520.171 541.602, 521.379 538.455 C 522.664 535.107, 521.928 531.838, 519.354 529.452 C 516.917 527.194, 515.928 527, 506.854 527 L 497 527 497 535 M 576.852 528.961 C 566.617 534.523, 561.651 547.090, 565.442 557.837 C 567.655 564.109, 570.911 567.809, 576.714 570.649 C 596.298 580.230, 615.578 558.734, 605.207 538.881 C 601.129 531.077, 595.806 527.643, 587.207 527.270 C 582.016 527.044, 579.675 527.427, 576.852 528.961 M 282 536 L 282 544 290.750 543.985 C 295.760 543.977, 300.561 543.433, 301.983 542.714 C 304.951 541.213, 306.537 537.274, 305.629 533.659 C 304.610 529.597, 300.355 528, 290.550 528 L 282 528 282 536 M 351 538.586 L 351 549.172 362.480 548.836 C 373.463 548.515, 374.079 548.381, 376.707 545.750 C 378.769 543.686, 379.455 542.021, 379.455 539.080 C 379.455 531.328, 373.621 528, 360.032 528 L 351 528 351 538.586 M 497 564.500 L 497 573 507.923 573 C 518.216 573, 519.024 572.851, 521.923 570.411 C 524.024 568.644, 525 566.925, 525 564.993 C 525 557.688, 521.725 556, 507.550 556 L 497 556 497 564.500 M 282 565.500 L 282 574 291.532 574 C 302.551 574, 307.503 572.436, 309.006 568.483 C 310.541 564.447, 310.233 563.079, 307.077 559.923 C 304.198 557.044, 303.987 557, 293.077 557 L 282 557 282 565.500 M 595.784 633.237 L 574.069 634.159 562.031 642.265 L 549.993 650.371 546.746 647.967 C 533.951 638.492, 519.820 632.515, 511.940 633.247 C 505.519 633.843, 498.722 637.543, 493.068 643.522 C 484.555 652.523, 481.386 661.881, 482.190 675.641 C 483.038 690.157, 491.510 702.600, 504.782 708.820 C 509.898 711.218, 511.659 711.500, 521.500 711.500 C 531.735 711.500, 532.957 711.284, 539.062 708.391 C 550.590 702.928, 559.538 691.914, 562.081 680.056 C 563.144 675.100, 563.222 675.023, 574.721 667.461 C 590.718 656.941, 604.312 646.409, 611.971 638.599 C 615.530 634.969, 618.230 632.071, 617.971 632.158 C 617.712 632.244, 607.728 632.730, 595.784 633.237" stroke="none" fill="#126cca" fill-rule="evenodd"/>
</svg>