<?xml version="1.0" standalone="no"?>
<!DOCTYPE svg PUBLIC "-//W3C//DTD SVG 20010904//EN"
 "http://www.w3.org/TR/2001/REC-SVG-20010904/DTD/svg10.dtd">
<svg version="1.0" xmlns="http://www.w3.org/2000/svg"
 width="1024.000000pt" height="1024.000000pt" viewBox="0 0 1024.000000 1024.000000"
 preserveAspectRatio="xMidYMid meet">

<g transform="translate(0.000000,1024.000000) scale(0.100000,-0.100000)"
fill="#000000" stroke="none">
<path d="M4215 7796 c-611 -102 -1089 -564 -1212 -1173 -26 -127 -26 -539 0
-668 39 -194 117 -435 187 -575 l28 -55 -57 -27 c-38 -18 -64 -39 -81 -65 -13
-21 -25 -40 -27 -42 -1 -2 -13 10 -27 26 -63 75 -189 113 -376 113 -240 0
-352 -34 -400 -120 -25 -44 -25 -50 -28 -295 -4 -321 9 -527 36 -581 28 -54
94 -89 195 -103 225 -31 462 6 566 88 l40 32 15 -28 c48 -93 173 -130 274 -82
58 29 91 80 106 168 l11 70 28 -43 c44 -71 144 -173 190 -195 52 -25 116 -27
164 -4 40 19 89 80 98 124 l7 30 46 -43 c102 -95 201 -130 367 -130 169 -1
286 46 375 151 l40 46 0 -31 c0 -17 10 -46 23 -65 52 -78 130 -100 344 -99
154 0 242 15 333 56 65 29 145 105 156 148 6 25 8 24 69 -42 71 -77 145 -121
244 -147 77 -20 198 -22 271 -6 76 18 190 75 231 116 35 36 49 42 49 24 0 -6
13 -30 30 -54 43 -62 122 -100 194 -92 90 9 149 50 237 167 15 19 29 33 31 30
3 -3 30 -40 62 -82 69 -93 121 -124 193 -114 91 12 175 83 194 162 14 61 -11
126 -94 247 l-74 108 61 106 c33 58 68 108 78 111 23 6 142 240 201 397 144
381 215 814 187 1140 -54 641 -413 1099 -970 1242 -114 29 -377 47 -550 38
-281 -15 -668 -71 -702 -102 -28 -25 -24 -79 7 -99 24 -15 34 -15 163 5 214
33 292 40 512 51 317 14 485 -4 671 -74 371 -139 621 -460 711 -911 31 -153
30 -428 -1 -630 -35 -228 -101 -466 -191 -690 -17 -44 -34 -82 -36 -84 -2 -3
-11 5 -20 17 -8 12 -35 34 -60 48 -38 22 -54 26 -100 22 -73 -6 -124 -43 -189
-135 -27 -40 -52 -72 -55 -72 -3 0 -30 34 -60 75 -66 91 -99 121 -144 129 -79
15 -193 -48 -235 -130 -14 -27 -26 -51 -27 -52 0 -2 -24 20 -52 47 -220 212
-624 177 -809 -70 l-37 -49 -28 52 c-86 156 -228 216 -488 204 -134 -6 -232
-33 -279 -76 l-30 -28 -23 25 c-95 103 -291 70 -342 -59 -14 -35 -16 -78 -14
-284 3 -227 2 -244 -16 -264 -22 -24 -63 -27 -90 -8 -29 21 -36 90 -29 297 6
214 0 258 -43 310 -91 107 -281 94 -340 -23 -9 -18 -18 -34 -20 -36 -2 -2 -24
15 -49 37 -25 22 -75 53 -110 68 -63 27 -65 30 -96 99 -50 112 -116 319 -146
460 -25 120 -27 148 -27 360 -1 205 2 239 21 317 79 309 268 557 516 678 129
62 236 84 397 83 314 -1 592 -118 869 -364 l103 -91 -9 -52 c-15 -92 -8 -226
15 -301 61 -200 229 -356 442 -412 83 -21 225 -21 310 1 226 57 413 247 466
472 23 100 15 257 -18 346 -73 195 -222 340 -413 401 -92 29 -279 31 -368 3
l-57 -18 -68 62 c-252 233 -538 378 -882 451 -133 27 -440 36 -565 15z m410
-146 c111 -13 315 -62 412 -101 220 -87 393 -201 569 -372 81 -78 76 -78 209
-38 82 25 204 28 282 7 166 -44 305 -183 349 -350 16 -60 18 -163 3 -226 -49
-214 -260 -380 -484 -380 -187 0 -354 98 -430 253 -58 119 -69 245 -30 371 19
62 18 64 -110 182 -137 126 -232 194 -365 263 -234 121 -409 164 -660 165
-142 1 -177 -2 -255 -23 -319 -83 -574 -321 -718 -671 -144 -347 -127 -799 46
-1252 l26 -68 -68 0 -68 0 -36 78 c-49 109 -100 258 -130 387 -109 459 -28
931 214 1255 275 367 767 573 1244 520z m-1798 -2465 c97 -29 152 -102 153
-199 0 -70 -32 -131 -88 -167 l-45 -28 27 -11 c15 -5 30 -10 33 -10 3 0 18 -9
34 -21 44 -31 71 -92 71 -158 0 -111 -52 -177 -167 -214 -61 -19 -92 -22 -240
-22 -183 0 -226 10 -240 55 -10 30 -13 722 -4 741 5 9 21 22 37 28 78 32 331
36 429 6z m755 11 c81 -18 122 -38 170 -84 94 -89 87 -260 -14 -348 -18 -16
-44 -36 -57 -44 l-23 -16 43 -51 c74 -86 112 -158 117 -219 4 -43 1 -59 -13
-74 -40 -44 -84 -14 -187 125 -129 175 -129 175 -210 175 -58 0 -68 -3 -68
-17 -1 -85 -13 -233 -21 -254 -10 -25 -45 -49 -73 -49 -26 0 -57 35 -66 75
-14 56 -22 687 -10 719 12 32 46 54 101 65 70 14 238 12 311 -3z m3716 -22
c12 -14 22 -36 22 -49 0 -14 -29 -66 -63 -117 -35 -51 -85 -124 -110 -161 -26
-38 -47 -72 -47 -77 0 -4 28 -46 62 -92 125 -167 158 -220 158 -253 0 -50 -62
-95 -109 -80 -11 3 -63 64 -115 135 -53 72 -102 130 -111 130 -8 0 -53 -52
-99 -114 -47 -63 -97 -123 -112 -133 -32 -21 -95 -23 -118 -4 -42 35 -13 94
157 324 34 45 56 85 53 93 -3 8 -51 77 -106 153 -106 147 -123 185 -97 224 19
30 69 51 99 43 14 -3 60 -55 121 -136 53 -71 101 -130 106 -130 5 0 50 56 100
125 51 68 102 132 114 140 28 20 65 12 95 -21z m-2003 15 c102 -19 159 -58
190 -131 19 -46 19 -118 1 -161 -13 -32 -78 -97 -96 -97 -22 0 -8 -19 19 -25
41 -9 108 -69 121 -111 7 -20 10 -66 8 -104 -3 -55 -9 -74 -31 -104 -59 -77
-171 -109 -382 -109 -148 0 -208 14 -219 51 -3 10 -6 177 -8 373 -3 337 -2
358 16 378 18 20 56 36 106 44 53 9 219 7 275 -4z m946 -8 c174 -55 279 -205
279 -399 -1 -141 -40 -240 -127 -323 -162 -153 -421 -154 -583 -3 -154 144
-168 445 -29 607 104 121 293 169 460 118z m-2110 -10 c24 -19 24 -21 29 -278
6 -289 9 -307 77 -353 32 -22 47 -25 124 -25 102 0 130 14 166 84 29 56 36
151 25 341 -6 108 -6 166 2 190 20 65 96 75 138 19 23 -31 38 -153 38 -316 0
-266 -56 -395 -199 -462 -49 -22 -69 -26 -166 -26 -100 0 -116 3 -170 28 -147
69 -196 174 -210 446 -4 70 -2 170 4 226 9 89 13 103 36 123 32 27 75 28 106
3z m2562 -370 c14 -25 13 -29 -19 -75 l-33 -49 2 97 c1 105 4 106 50 27z"/>
<path d="M2530 4954 l0 -106 88 7 c146 11 182 32 182 105 -1 71 -55 100 -185
100 l-85 0 0 -106z"/>
<path d="M2535 4712 c-3 -3 -5 -55 -5 -115 l0 -110 110 5 c124 6 173 24 204
77 37 64 -6 108 -129 130 -71 12 -173 20 -180 13z"/>
<path d="M3340 4935 l0 -115 81 0 c103 0 152 15 189 57 54 61 32 137 -48 161
-22 7 -80 12 -131 12 l-91 0 0 -115z"/>
<path d="M5068 5054 c-5 -4 -8 -52 -8 -107 l0 -100 93 5 c51 3 106 11 122 19
72 34 73 128 2 163 -40 19 -196 35 -209 20z"/>
<path d="M5064 4600 l0 -112 116 4 c104 3 120 6 153 28 60 41 73 91 33 129
-33 31 -105 51 -212 58 l-90 6 0 -113z"/>
<path d="M6065 5034 c-90 -22 -142 -60 -176 -127 -30 -58 -30 -209 1 -271 65
-134 257 -168 374 -65 63 56 79 105 74 223 -4 87 -7 99 -35 138 -50 69 -166
119 -238 102z m126 -152 c45 -51 48 -152 5 -217 -22 -34 -79 -50 -125 -36 -61
18 -84 51 -89 125 -7 113 40 170 132 163 40 -4 55 -10 77 -35z"/>
<path d="M4252 6777 c-21 -22 -22 -32 -22 -210 l0 -187 -62 -1 c-129 -2 -284
-6 -300 -7 -10 -1 -26 -12 -38 -24 -19 -21 -20 -34 -20 -334 l0 -313 24 -28
24 -28 186 -3 186 -4 0 -124 c0 -119 1 -126 25 -149 l24 -25 333 0 c246 1 337
4 349 13 32 24 39 56 39 171 l0 116 159 0 c145 0 161 2 185 21 l26 20 0 323 0
323 -24 22 c-24 22 -31 23 -185 22 l-160 -1 -3 196 c-3 192 -3 196 -27 215
-22 18 -43 19 -360 19 l-338 0 -21 -23z m608 -302 c0 -252 -15 -235 198 -236
86 -1 160 -1 165 0 4 0 7 -100 7 -223 l0 -225 -166 -3 c-213 -4 -204 4 -204
-179 l0 -129 -244 0 -244 0 -4 135 c-2 113 -6 137 -21 152 -15 16 -41 18 -207
21 l-190 3 0 225 0 224 189 0 190 0 20 26 c20 25 21 40 21 215 l0 189 245 0
245 0 0 -195z"/>
<path d="M7116 5323 c-6 -14 -5 -15 5 -6 7 7 10 15 7 18 -3 3 -9 -2 -12 -12z"/>
<path d="M5273 3660 c-71 -13 -160 -50 -227 -95 -75 -50 -170 -155 -206 -229
-143 -290 -15 -667 271 -804 100 -48 162 -62 272 -62 154 0 296 60 407 170
103 104 155 217 167 365 l6 80 111 73 c186 123 471 365 482 409 10 39 -10 71
-51 79 -33 6 -39 2 -132 -83 -133 -122 -269 -228 -407 -318 -63 -41 -120 -84
-126 -96 -6 -11 -9 -33 -5 -48 3 -15 1 -59 -5 -97 -50 -320 -392 -490 -685
-342 -53 27 -144 121 -177 184 -118 220 -50 475 164 614 154 100 371 91 520
-21 29 -21 61 -39 72 -39 24 0 183 84 280 148 57 38 72 53 74 76 l4 28 -94 -4
c-90 -5 -96 -7 -169 -51 -42 -26 -81 -47 -86 -47 -6 0 -37 16 -69 35 -110 66
-269 96 -391 75z"/>
</g>
</svg>
