<?xml version="1.0" encoding="UTF-8"?>
<!DOCTYPE svg PUBLIC "-//W3C//DTD SVG 1.1//EN" "http://www.w3.org/Graphics/SVG/1.1/DTD/svg11.dtd">
<svg xmlns="http://www.w3.org/2000/svg" version="1.1" width="1024px" height="1024px" style="shape-rendering:geometricPrecision; text-rendering:geometricPrecision; image-rendering:optimizeQuality; fill-rule:evenodd; clip-rule:evenodd" xmlns:xlink="http://www.w3.org/1999/xlink">
<g><path style="opacity:1" fill="#f1f1f1" d="M -0.5,-0.5 C 340.833,-0.5 682.167,-0.5 1023.5,-0.5C 1023.5,340.833 1023.5,682.167 1023.5,1023.5C 682.167,1023.5 340.833,1023.5 -0.5,1023.5C -0.5,682.167 -0.5,340.833 -0.5,-0.5 Z"/></g>
<g><path style="opacity:1" fill="#6895cb" d="M 545.5,315.5 C 545.5,316.167 545.833,316.5 546.5,316.5C 543.72,317.82 540.72,318.32 537.5,318C 540.202,317.16 542.868,316.327 545.5,315.5 Z"/></g>
<g><path style="opacity:1" fill="#1b6fc5" d="M 364.5,431.5 C 363.8,434.577 363.466,438.41 363.5,443C 363.247,451.291 363.914,457.457 365.5,461.5C 367.38,473.218 370.047,484.885 373.5,496.5C 372.667,496.833 371.833,497.167 371,497.5C 366.48,496.983 361.98,496.316 357.5,495.5C 351.138,481.719 346.471,467.385 343.5,452.5C 344.152,451.551 344.486,450.385 344.5,449C 343.23,437.704 342.23,426.537 341.5,415.5C 348.251,369.85 372.918,338.016 415.5,320C 434.058,312.018 453.391,309.018 473.5,311C 511.837,314.607 546.171,328.107 576.5,351.5C 594.895,346.887 610.062,351.887 622,366.5C 632.871,385.051 631.538,402.718 618,419.5C 596.142,436.679 575.475,435.345 556,415.5C 547.766,402.13 546.266,387.963 551.5,373C 523.368,346.952 490.034,334.285 451.5,335C 413.706,340.132 387.539,360.299 373,395.5C 368.935,407.348 366.102,419.348 364.5,431.5 Z"/></g>
<g><path style="opacity:1" fill="#196ec4" d="M 683.5,537.5 C 682.527,535.052 682.194,532.385 682.5,529.5C 682.649,528.448 682.483,527.448 682,526.5C 677.302,533.701 672.802,541.035 668.5,548.5C 674.469,558.301 680.636,567.967 687,577.5C 688.403,583.605 685.903,586.605 679.5,586.5C 676.972,586.237 674.639,585.404 672.5,584C 667.624,576.414 662.624,568.914 657.5,561.5C 652.376,568.914 647.376,576.414 642.5,584C 638.053,587.021 633.553,587.188 629,584.5C 628.362,583.391 627.862,582.225 627.5,581C 633.556,569.78 640.223,558.947 647.5,548.5C 642.333,540.833 637.167,533.167 632,525.5C 626.181,518.292 627.847,513.959 637,512.5C 639.321,512.909 641.487,513.743 643.5,515C 648.333,521.833 653.167,528.667 658,535.5C 661.667,529.5 665.333,523.5 669,517.5C 671.819,513.507 675.653,511.84 680.5,512.5C 681.292,506.74 679.958,501.573 676.5,497C 689.986,466.392 697.319,434.392 698.5,401C 698.123,359.956 678.457,332.956 639.5,320C 608.754,312.629 577.754,311.462 546.5,316.5C 545.833,316.5 545.5,316.167 545.5,315.5C 577.499,306.811 609.833,305.311 642.5,311C 685.222,322.878 710.722,350.711 719,394.5C 723.795,439.731 715.462,482.398 694,522.5C 690.983,527.879 687.483,532.879 683.5,537.5 Z"/></g>
<g><path style="opacity:1" fill="#36a33e" d="M 458.5,386.5 C 458.833,437.167 459.167,437.167 459.5,386.5C 472.171,386.333 484.838,386.5 497.5,387C 498.158,399.265 498.824,411.431 499.5,423.5C 511.993,424.331 524.66,424.831 537.5,425C 538.655,437.758 538.822,450.591 538,463.5C 537.5,464 537,464.5 536.5,465C 524.171,465.5 511.838,465.667 499.5,465.5C 499.809,475.886 499.476,486.219 498.5,496.5C 485.167,497.833 471.833,497.833 458.5,496.5C 457.524,486.219 457.191,475.886 457.5,465.5C 445.162,465.667 432.829,465.5 420.5,465C 420,464.5 419.5,464 419,463.5C 418.178,450.591 418.345,437.758 419.5,425C 432.162,424.5 444.829,424.333 457.5,424.5C 457.171,411.656 457.505,398.989 458.5,386.5 Z"/></g>
<g><path style="opacity:1" fill="#078710" d="M 499.5,423.5 C 498.824,411.431 498.158,399.265 497.5,387C 484.838,386.5 472.171,386.333 459.5,386.5C 459.167,437.167 458.833,437.167 458.5,386.5C 471.66,385.34 484.994,385.173 498.5,386C 499.489,398.42 499.822,410.92 499.5,423.5 Z"/></g>
<g><path style="opacity:1" fill="#0952bb" d="M 364.5,431.5 C 364.553,441.512 364.887,451.512 365.5,461.5C 363.914,457.457 363.247,451.291 363.5,443C 363.466,438.41 363.8,434.577 364.5,431.5 Z"/></g>
<g><path style="opacity:1" fill="#0352bb" d="M 341.5,415.5 C 342.23,426.537 343.23,437.704 344.5,449C 344.486,450.385 344.152,451.551 343.5,452.5C 341.864,440.23 341.197,427.897 341.5,415.5 Z"/></g>
<g><path style="opacity:1" fill="#1270c4" d="M 317.5,551.5 C 319.371,551.859 320.871,552.859 322,554.5C 327.568,564.783 326.068,573.95 317.5,582C 314.618,583.608 311.618,584.941 308.5,586C 295.833,586.667 283.167,586.667 270.5,586C 268.356,585.208 267.023,583.708 266.5,581.5C 267.172,560.098 267.839,538.598 268.5,517C 281.071,515.373 293.738,515.04 306.5,516C 316.97,519.444 321.47,526.611 320,537.5C 318.726,541.885 316.56,545.719 313.5,549C 314.356,550.595 315.689,551.428 317.5,551.5 Z"/></g>
<g><path style="opacity:1" fill="#146ec3" d="M 576.5,511.5 C 600.393,508.349 616.226,518.015 624,540.5C 626.871,565.269 616.371,581.103 592.5,588C 570.793,590.568 555.96,581.734 548,561.5C 543.32,536.506 552.82,519.84 576.5,511.5 Z"/></g>
<g><path style="opacity:1" fill="#f0f1f1" d="M 580.5,526.5 C 600.239,526.076 609.072,535.743 607,555.5C 600.732,571.926 589.565,576.426 573.5,569C 560.174,556.042 560.174,543.042 573.5,530C 575.925,528.787 578.259,527.621 580.5,526.5 Z"/></g>
<g><path style="opacity:1" fill="#1a65bf" d="M 317.5,551.5 C 315.689,551.428 314.356,550.595 313.5,549C 316.56,545.719 318.726,541.885 320,537.5C 321.47,526.611 316.97,519.444 306.5,516C 293.738,515.04 281.071,515.373 268.5,517C 267.839,538.598 267.172,560.098 266.5,581.5C 265.356,560.543 265.19,539.543 266,518.5C 266.465,517.069 267.299,515.903 268.5,515C 280.404,513.375 292.404,513.042 304.5,514C 318.437,517.042 323.937,525.542 321,539.5C 319.698,543.274 317.531,546.441 314.5,549C 315.942,549.377 316.942,550.21 317.5,551.5 Z"/></g>
<g><path style="opacity:1" fill="#7ba5d4" d="M 682.5,529.5 C 682.194,532.385 682.527,535.052 683.5,537.5C 683.44,538.043 683.107,538.376 682.5,538.5C 681.197,535.355 681.197,532.355 682.5,529.5 Z"/></g>
<g><path style="opacity:1" fill="#2d68c1" d="M 481.5,517.5 C 482.833,538.5 482.833,559.5 481.5,580.5C 480.167,559.5 480.167,538.5 481.5,517.5 Z"/></g>
<g><path style="opacity:1" fill="#0756bb" d="M 281.5,527.5 C 287.653,526.347 293.986,526.18 300.5,527C 304.833,528.161 306.833,530.995 306.5,535.5C 306.751,539.503 305.084,542.336 301.5,544C 294.508,544.5 287.508,544.666 280.5,544.5C 280.178,538.642 280.511,532.975 281.5,527.5 Z"/></g>
<g><path style="opacity:1" fill="#f1f1f2" d="M 281.5,527.5 C 287.509,527.334 293.509,527.501 299.5,528C 305.45,530.477 306.95,534.643 304,540.5C 302.581,541.46 301.081,542.293 299.5,543C 293.509,543.499 287.509,543.666 281.5,543.5C 281.5,538.167 281.5,532.833 281.5,527.5 Z"/></g>
<g><path style="opacity:1" fill="#1370c4" d="M 337.5,514.5 C 350.327,513.34 363.327,513.173 376.5,514C 390.635,518.76 396.802,528.593 395,543.5C 393.042,552.793 387.542,558.96 378.5,562C 383.996,568.665 388.996,575.665 393.5,583C 393.241,584.261 392.574,585.261 391.5,586C 386.713,586.879 382.047,586.545 377.5,585C 371.783,578.284 366.45,571.284 361.5,564C 357.642,563.19 353.976,563.357 350.5,564.5C 349.883,564.389 349.383,564.056 349,563.5C 348.667,570.5 348.333,577.5 348,584.5C 344.927,585.617 341.76,585.784 338.5,585C 337.299,584.097 336.465,582.931 336,581.5C 335.333,560.167 335.333,538.833 336,517.5C 336.833,516.667 337.667,515.833 338.5,515C 338.272,514.601 337.938,514.435 337.5,514.5 Z"/></g>
<g><path style="opacity:1" fill="#f0f1f1" d="M 350.5,527.5 C 357.921,527.109 365.254,527.609 372.5,529C 378.542,532.748 380.042,537.915 377,544.5C 376.097,545.701 374.931,546.535 373.5,547C 365.92,548.396 358.253,548.896 350.5,548.5C 350.5,541.5 350.5,534.5 350.5,527.5 Z"/></g>
<g><path style="opacity:1" fill="#f0f0f1" d="M 281.5,556.5 C 288.841,556.334 296.174,556.5 303.5,557C 309.759,560.201 310.925,564.701 307,570.5C 305.352,571.717 303.519,572.55 301.5,573C 294.842,573.5 288.175,573.666 281.5,573.5C 281.5,567.833 281.5,562.167 281.5,556.5 Z"/></g>
<g><path style="opacity:1" fill="#326dc2" d="M 337.5,514.5 C 337.938,514.435 338.272,514.601 338.5,515C 337.667,515.833 336.833,516.667 336,517.5C 335.333,538.833 335.333,560.167 336,581.5C 336.465,582.931 337.299,584.097 338.5,585C 341.76,585.784 344.927,585.617 348,584.5C 348.333,577.5 348.667,570.5 349,563.5C 349.383,564.056 349.883,564.389 350.5,564.5C 350.666,570.842 350.5,577.175 350,583.5C 347.419,587.028 343.919,588.194 339.5,587C 336.337,585.52 334.504,583.02 334,579.5C 333.333,559.167 333.333,538.833 334,518.5C 334.66,516.676 335.827,515.343 337.5,514.5 Z"/></g>
<g><path style="opacity:1" fill="#136ec3" d="M 421.5,559.5 C 420.387,560.946 420.22,562.613 421,564.5C 425.442,572.636 432.275,575.802 441.5,574C 447.74,572.092 451.573,567.925 453,561.5C 453.333,546.167 453.667,530.833 454,515.5C 455.38,514.744 455.547,514.078 454.5,513.5C 457.976,512.357 461.642,512.19 465.5,513C 466.333,513.833 467.167,514.667 468,515.5C 468.667,531.5 468.667,547.5 468,563.5C 464.071,580.577 453.237,588.91 435.5,588.5C 418.402,587.899 408.236,579.232 405,562.5C 404.333,546.833 404.333,531.167 405,515.5C 408.338,512.682 412.171,511.849 416.5,513C 418.333,513.5 419.5,514.667 420,516.5C 420.2,530.878 420.7,545.211 421.5,559.5 Z"/></g>
<g><path style="opacity:1" fill="#155abc" d="M 454.5,513.5 C 455.547,514.078 455.38,514.744 454,515.5C 453.667,530.833 453.333,546.167 453,561.5C 451.573,567.925 447.74,572.092 441.5,574C 432.275,575.802 425.442,572.636 421,564.5C 420.22,562.613 420.387,560.946 421.5,559.5C 423.652,569.154 429.652,573.654 439.5,573C 446.784,571.382 450.951,566.882 452,559.5C 452.333,544.5 452.667,529.5 453,514.5C 453.383,513.944 453.883,513.611 454.5,513.5 Z"/></g>
<g><path style="opacity:1" fill="#156ec3" d="M 481.5,580.5 C 482.833,559.5 482.833,538.5 481.5,517.5C 482.023,515.292 483.356,513.792 485.5,513C 497.167,512.333 508.833,512.333 520.5,513C 535.033,516.87 540.2,526.037 536,540.5C 534.533,543.266 532.7,545.766 530.5,548C 541.187,555.413 543.354,564.913 537,576.5C 533.908,580.928 529.741,583.761 524.5,585C 511.882,586.564 499.215,586.897 486.5,586C 483.921,584.924 482.254,583.091 481.5,580.5 Z"/></g>
<g><path style="opacity:1" fill="#f2f2f2" d="M 497.5,555.5 C 504.508,555.334 511.508,555.5 518.5,556C 525.663,559.994 526.33,564.994 520.5,571C 512.92,572.396 505.253,572.896 497.5,572.5C 497.5,566.833 497.5,561.167 497.5,555.5 Z"/></g>
<g><path style="opacity:1" fill="#edeff1" d="M 496.5,526.5 C 502.842,526.334 509.175,526.5 515.5,527C 523.487,532.052 523.487,537.052 515.5,542C 509.175,542.5 502.842,542.666 496.5,542.5C 496.5,537.167 496.5,531.833 496.5,526.5 Z"/></g>
<g><path style="opacity:1" fill="#9199e8" d="M 502.5,605.5 C 498.629,605.06 494.962,605.06 491.5,605.5C 489.076,605.808 486.743,605.474 484.5,604.5C 487.5,604.167 490.5,603.833 493.5,603.5C 496.913,603.517 499.913,604.184 502.5,605.5 Z"/></g>
<g><path style="opacity:1" fill="#9ba3e8" d="M 340.5,602.5 C 345.777,601.931 350.777,602.765 355.5,605C 361,611.329 360.667,617.329 354.5,623C 349.964,624.379 345.297,624.879 340.5,624.5C 340.5,617.167 340.5,609.833 340.5,602.5 Z"/></g>
<g><path style="opacity:1" fill="#9ba2e9" d="M 562.5,603.5 C 568.5,603.5 574.5,603.5 580.5,603.5C 580.5,604.5 580.5,605.5 580.5,606.5C 578.167,606.5 575.833,606.5 573.5,606.5C 573.5,612.833 573.5,619.167 573.5,625.5C 572.5,625.5 571.5,625.5 570.5,625.5C 570.5,619.167 570.5,612.833 570.5,606.5C 567.833,606.5 565.167,606.5 562.5,606.5C 562.5,605.5 562.5,604.5 562.5,603.5 Z"/></g>
<g><path style="opacity:1" fill="#f2f2f2" d="M 343.5,605.5 C 352.658,604.491 356.492,608.491 355,617.5C 352.056,621.114 348.223,622.447 343.5,621.5C 343.5,616.167 343.5,610.833 343.5,605.5 Z"/></g>
<g><path style="opacity:1" fill="#a0a7ea" d="M 445.5,602.5 C 446.833,602.5 448.167,602.5 449.5,602.5C 449.5,609.833 449.5,617.167 449.5,624.5C 448.167,624.5 446.833,624.5 445.5,624.5C 445.5,617.167 445.5,609.833 445.5,602.5 Z"/></g>
<g><path style="opacity:1" fill="#9ca3e8" d="M 633.5,603.5 C 634.873,603.343 636.207,603.51 637.5,604C 641.454,608.742 645.287,613.576 649,618.5C 649.499,613.511 649.666,608.511 649.5,603.5C 650.833,603.5 652.167,603.5 653.5,603.5C 653.5,610.833 653.5,618.167 653.5,625.5C 652.127,625.657 650.793,625.49 649.5,625C 645.379,619.924 641.379,614.757 637.5,609.5C 636.505,614.792 636.172,620.125 636.5,625.5C 635.5,625.5 634.5,625.5 633.5,625.5C 633.5,618.167 633.5,610.833 633.5,603.5 Z"/></g>
<g><path style="opacity:1" fill="#9da5e9" d="M 401.5,602.5 C 402.833,602.5 404.167,602.5 405.5,602.5C 405.5,609.833 405.5,617.167 405.5,624.5C 404.167,624.5 402.833,624.5 401.5,624.5C 401.5,617.167 401.5,609.833 401.5,602.5 Z"/></g>
<g><path style="opacity:1" fill="#9da5e9" d="M 318.5,602.5 C 320.144,602.286 321.644,602.62 323,603.5C 325.931,610.126 328.764,616.792 331.5,623.5C 329.124,624.817 327.457,624.15 326.5,621.5C 322.541,620.34 318.541,620.173 314.5,621C 313.663,622.011 313.33,623.178 313.5,624.5C 312.167,624.5 310.833,624.5 309.5,624.5C 311.943,616.945 314.943,609.612 318.5,602.5 Z"/></g>
<g><path style="opacity:1" fill="#f4f4f2" d="M 319.5,607.5 C 320.376,607.369 321.043,607.702 321.5,608.5C 322.305,610.915 323.305,613.249 324.5,615.5C 321.833,616.833 319.167,616.833 316.5,615.5C 317.513,612.812 318.513,610.146 319.5,607.5 Z"/></g>
<g><path style="opacity:1" fill="#9da4e9" d="M 415.5,602.5 C 417.722,602.178 419.556,602.845 421,604.5C 424.333,609.167 427.667,613.833 431,618.5C 431.499,613.177 431.666,607.844 431.5,602.5C 432.833,602.5 434.167,602.5 435.5,602.5C 435.5,609.833 435.5,617.167 435.5,624.5C 433.712,624.785 432.045,624.452 430.5,623.5C 426.667,618.5 422.833,613.5 419,608.5C 418.501,613.823 418.334,619.156 418.5,624.5C 417.5,624.5 416.5,624.5 415.5,624.5C 415.5,617.167 415.5,609.833 415.5,602.5 Z"/></g>
<g><path style="opacity:1" fill="#99a0e9" d="M 269.5,603.5 C 274.5,603.5 279.5,603.5 284.5,603.5C 284.5,604.5 284.5,605.5 284.5,606.5C 280.5,606.5 276.5,606.5 272.5,606.5C 272.5,608.833 272.5,611.167 272.5,613.5C 276.167,613.5 279.833,613.5 283.5,613.5C 283.5,614.5 283.5,615.5 283.5,616.5C 279.833,616.5 276.167,616.5 272.5,616.5C 272.5,618.5 272.5,620.5 272.5,622.5C 276.884,622.174 281.217,622.508 285.5,623.5C 280.208,624.495 274.875,624.828 269.5,624.5C 269.5,617.5 269.5,610.5 269.5,603.5 Z"/></g>
<g><path style="opacity:1" fill="#99a1e7" d="M 294.5,614.5 C 297.167,614.5 299.833,614.5 302.5,614.5C 302.5,615.5 302.5,616.5 302.5,617.5C 299.833,617.5 297.167,617.5 294.5,617.5C 294.5,616.5 294.5,615.5 294.5,614.5 Z"/></g>
<g><path style="opacity:1" fill="#b3b8ea" d="M 491.5,605.5 C 494.962,605.06 498.629,605.06 502.5,605.5C 500.393,606.468 498.059,606.802 495.5,606.5C 495.823,612.69 495.49,618.69 494.5,624.5C 494.666,618.491 494.499,612.491 494,606.5C 493.667,612.167 493.333,617.833 493,623.5C 492.828,617.319 492.328,611.319 491.5,605.5 Z"/></g>
<g><path style="opacity:1" fill="#9fa6e9" d="M 511.5,602.5 C 515.846,602.334 520.179,602.501 524.5,603C 529.626,605.553 530.793,609.386 528,614.5C 526.581,615.46 525.081,616.293 523.5,617C 525.874,619.039 527.874,621.372 529.5,624C 528.167,624.667 526.833,624.667 525.5,624C 523.011,620.312 519.678,618.145 515.5,617.5C 515.5,620.167 515.5,622.833 515.5,625.5C 514.167,625.5 512.833,625.5 511.5,625.5C 511.5,617.833 511.5,610.167 511.5,602.5 Z"/></g>
<g><path style="opacity:1" fill="#f4f4f2" d="M 515.5,605.5 C 518.93,605.107 522.096,605.773 525,607.5C 525.743,609.441 525.576,611.274 524.5,613C 521.518,613.498 518.518,613.665 515.5,613.5C 515.5,610.833 515.5,608.167 515.5,605.5 Z"/></g>
<g><path style="opacity:1" fill="#9aa1e8" d="M 369.5,602.5 C 371.39,602.297 372.89,602.963 374,604.5C 376.248,607.328 378.248,610.328 380,613.5C 381.97,610.032 384.136,606.699 386.5,603.5C 387.689,602.571 389.022,602.238 390.5,602.5C 390.5,609.833 390.5,617.167 390.5,624.5C 389.167,624.5 387.833,624.5 386.5,624.5C 386.666,619.489 386.499,614.489 386,609.5C 384,612.833 382,616.167 380,619.5C 377.417,616.003 375.084,612.336 373,608.5C 372.501,613.823 372.334,619.156 372.5,624.5C 371.5,624.5 370.5,624.5 369.5,624.5C 369.5,617.167 369.5,609.833 369.5,602.5 Z"/></g>
<g><path style="opacity:1" fill="#9ea5e9" d="M 590.5,602.5 C 591.5,602.5 592.5,602.5 593.5,602.5C 593.5,610.167 593.5,617.833 593.5,625.5C 592.167,625.5 590.833,625.5 589.5,625.5C 589.201,617.747 589.534,610.08 590.5,602.5 Z"/></g>
<g><path style="opacity:1" fill="#9098e8" d="M 491.5,605.5 C 492.328,611.319 492.828,617.319 493,623.5C 493.333,617.833 493.667,612.167 494,606.5C 494.499,612.491 494.666,618.491 494.5,624.5C 493.5,624.5 492.5,624.5 491.5,624.5C 491.5,618.167 491.5,611.833 491.5,605.5 Z"/></g>
<g><path style="opacity:1" fill="#9fa6e9" d="M 545.5,602.5 C 547.288,602.215 548.955,602.548 550.5,603.5C 553.305,610.582 556.305,617.582 559.5,624.5C 555.926,625.861 554.26,624.527 554.5,620.5C 550.116,620.174 545.783,620.508 541.5,621.5C 540.543,624.15 538.876,624.817 536.5,623.5C 539.701,616.558 542.701,609.558 545.5,602.5 Z"/></g>
<g><path style="opacity:1" fill="#f4f3f1" d="M 547.5,607.5 C 549.33,609.826 550.663,612.493 551.5,615.5C 548.894,616.652 546.227,616.818 543.5,616C 544.703,613.095 546.036,610.262 547.5,607.5 Z"/></g>
<g><path style="opacity:1" fill="#9ca3e8" d="M 609.5,602.5 C 620.18,602.015 625.347,607.015 625,617.5C 622.033,624.453 616.867,626.953 609.5,625C 603.092,621.677 600.925,616.511 603,609.5C 604.694,606.642 606.861,604.309 609.5,602.5 Z"/></g>
<g><path style="opacity:1" fill="#f1f1f2" d="M 609.5,606.5 C 618.158,605.327 621.992,608.994 621,617.5C 616.748,623.653 612.081,623.986 607,618.5C 604.696,613.855 605.529,609.855 609.5,606.5 Z"/></g>
<g><path style="opacity:1" fill="#9da5e9" d="M 463.5,602.5 C 468.284,601.839 472.618,602.839 476.5,605.5C 476.167,606.5 475.5,607.167 474.5,607.5C 470.117,604.57 466.117,604.904 462.5,608.5C 462.977,609.478 463.643,610.311 464.5,611C 469.465,611.241 473.631,613.075 477,616.5C 477.753,620.493 476.253,623.326 472.5,625C 469.5,625.667 466.5,625.667 463.5,625C 461.697,624.363 460.364,623.197 459.5,621.5C 460.167,621.167 460.833,620.833 461.5,620.5C 464.664,622.194 467.998,622.694 471.5,622C 474.167,620 474.167,618 471.5,616C 466.995,616.057 463.161,614.557 460,611.5C 458.959,607.59 460.125,604.59 463.5,602.5 Z"/></g>
<g><path style="opacity:1" fill="#1d6fc5" d="M 567.5,638.5 C 569.609,637.609 571.609,636.442 573.5,635C 608.16,634.167 608.16,633.667 573.5,633.5C 588.406,632.637 603.406,632.137 618.5,632C 602.296,648.094 584.296,661.761 564.5,673C 559.463,696.87 544.796,710.036 520.5,712.5C 489.533,707.618 477.033,689.618 483,658.5C 494.291,631.403 512.458,625.57 537.5,641C 541.639,643.639 545.639,646.472 549.5,649.5C 555.535,645.779 561.535,642.113 567.5,638.5 Z"/></g>
<g><path style="opacity:1" fill="#0754bc" d="M 573.5,633.5 C 608.16,633.667 608.16,634.167 573.5,635C 571.609,636.442 569.609,637.609 567.5,638.5C 569.091,636.367 571.091,634.701 573.5,633.5 Z"/></g>
</svg>
